# xmcd
#
# Track frame offsets:
#	150
#	21150
#	33409
#	50352
#	65084
#	83513
#	96958
#	112328
#	127950
#	140314
#	157549
#	171782
#	181451
#	194670
#	210988
#	232589
#	245515
#	254903
#	265775
#	284228
#	297743
#
# Disc length: 4137 seconds
#
# Revision: 2
# Processed by: cddbd v1.5.1PL2 Copyright (c) Steve Scherf et al.
# Submitted via: EasyCDDAExtractor 8.0.1.1
#
DISCID=39102715
DTITLE=Les Sunlights - tous les tubes
DYEAR=2002
DGENRE=Oldies
TTITLE0=les roses blanches
TTITLE1=ne joue pas au soldat
TTITLE2=le deserteur
TTITLE3=maman la plus belle du monde
TTITLE4=loin des yeux loin du coeur
TTITLE5=quand on est musicien
TTITLE6=tzeinerlin
TTITLE7=nous deux on s'aimera
TTITLE8=gisele
TTITLE9=voulez-vous danser grand mere
TTITLE10=plus de maman
TTITLE11=rendez-vous a demain
TTITLE12=maria isabel
TTITLE13=20 ans deja
TTITLE14=mon fils
TTITLE15=pourquoi
TTITLE16=les majorettes
TTITLE17=casser la baraque
TTITLE18=plus jamais ca
TTITLE19=le galerien
TTITLE20=les roses blanches (version italienne)
EXTD=
EXTT0=
EXTT1=
EXTT2=
EXTT3=
EXTT4=
EXTT5=
EXTT6=
EXTT7=
EXTT8=
EXTT9=
EXTT10=
EXTT11=
EXTT12=
EXTT13=
EXTT14=
EXTT15=
EXTT16=
EXTT17=
EXTT18=
EXTT19=
EXTT20=
PLAYORDER=
